<?xml version="1.0" encoding="UTF-8"?>
<!DOCTYPE svg PUBLIC "-//W3C//DTD SVG 1.1//EN" "http://www.w3.org/Graphics/SVG/1.1/DTD/svg11.dtd">
<!-- Creator: CorelDRAW 2020 (64 Bit) -->
<svg xmlns="http://www.w3.org/2000/svg" xml:space="preserve" width="300mm" height="300mm" version="1.1" style="shape-rendering:geometricPrecision; text-rendering:geometricPrecision; image-rendering:optimizeQuality; fill-rule:evenodd; clip-rule:evenodd"
viewBox="0 0 30000 30000"
 xmlns:xlink="http://www.w3.org/1999/xlink"
 xmlns:xodm="http://www.corel.com/coreldraw/odm/2003">
 <defs>
  <style type="text/css">
   <![CDATA[
    .str0 {stroke:black;stroke-width:141.51;stroke-miterlimit:22.9256}
    .fil0 {fill:#201E1E}
   ]]>
  </style>
 </defs>
 <g id="Camada_x0020_1">
  <metadata id="CorelCorpID_0Corel-Layer"/>
  <path class="fil0 str0" d="M13996.19 2741.77c305.58,-169.84 649.82,-259.03 999.58,-259.03 349.75,0 693.99,89.19 999.53,259.06l12348.84 6860.47c653.24,362.45 1059.04,1051.43 1059.29,1798.7l0 9604.65c0,568.32 -460.83,1029.15 -1029.07,1029.15 -568.24,0 -1029.07,-460.83 -1029.07,-1029.07l0 -7250.14 -2058.14 1142.95 0 7479.29c0,-0.06 0,0.07 0,0.07 0,563.47 -453.41,1022.28 -1016.76,1028.94 -2606.98,31.56 -4220.56,548.84 -5407.42,1229.39 -974.19,558.44 -1686.3,1228.03 -2493.1,1986.8 -218.16,204.44 -441.81,414.37 -680.56,631.16 -189.44,172.99 -437.07,268.97 -693.59,268.97 -279.8,0 -547.52,-114.07 -741.5,-315.59l-104.28 -109.77c-963.21,-1001.63 -1787.84,-1859.18 -2969.2,-2513.67 -1200.59,-665.47 -2845.73,-1152.56 -5455.44,-1177.26 -564.49,-5.08 -1019.54,-464.52 -1019.54,-1029 0,0 0,0 0,0l0 -7477.91 -3057.03 -1701.4c-652.73,-362.85 -1058.03,-1051.83 -1058.03,-1798.85 0,-747.02 405.3,-1436 1058.09,-1798.83l12348.85 -6860.46 -1.45 1.38zm-7232.31 13301.07l0 5338.82c2336.68,131.72 4042.19,642.14 5414.28,1402.28 1177.25,651.75 2069.11,1468.14 2853.96,2266.71 788.95,-740.93 1675.32,-1550.47 2807.3,-2199.47 1355.62,-776.61 3039.18,-1321.33 5389.58,-1465.4l0 -5342.94 -7233.68 4017.5c-305.56,169.81 -649.8,259.01 -999.55,259.01 -349.76,0 -694,-89.2 -999.54,-259.06l-7232.35 -4017.45zm8232.56 -11502.26l12348.85 6860.47 -12348.85 6860.46 -12348.84 -6860.46 12348.84 -6860.47z"/>
 </g>
</svg>
