<?xml version="1.0" encoding="UTF-8"?>
<!DOCTYPE svg PUBLIC "-//W3C//DTD SVG 1.1//EN" "http://www.w3.org/Graphics/SVG/1.1/DTD/svg11.dtd">
<!-- Creator: CorelDRAW 2020 (64 Bit) -->
<svg xmlns="http://www.w3.org/2000/svg" xml:space="preserve" width="300mm" height="300mm" version="1.1" style="shape-rendering:geometricPrecision; text-rendering:geometricPrecision; image-rendering:optimizeQuality; fill-rule:evenodd; clip-rule:evenodd"
viewBox="0 0 30000 30000"
 xmlns:xlink="http://www.w3.org/1999/xlink"
 xmlns:xodm="http://www.corel.com/coreldraw/odm/2003">
 <defs>
  <style type="text/css">
   <![CDATA[
    .str0 {stroke:black;stroke-width:148.51;stroke-miterlimit:22.9256}
    .fil0 {fill:#201E1E}
   ]]>
  </style>
 </defs>
 <g id="Camada_x0020_1">
  <metadata id="CorelCorpID_0Corel-Layer"/>
  <path class="fil0 str0" d="M4304.89 15443.52c0,5960 4832.5,10792.5 10792.5,10792.5 5959.99,0 10792.5,-4832.5 10792.5,-10792.5 0,-5960 -4832.51,-10792.5 -10792.5,-10792.5 -5960,0 -10792.5,4832.5 -10792.5,10792.5zm10792.5 -12697.07c-7012.59,0 -12697.07,5684.48 -12697.07,12697.07 0,7012.59 5684.48,12697.06 12697.06,12697.06 7012.58,0 12697.06,-5684.48 12697.06,-12697.06 0,-7012.58 -5684.47,-12697.07 -12697.05,-12697.07zm2850.49 9529.15l0 -3.81 -3.81 -57.14c-5.08,-55.87 -15.24,-144.75 -38.09,-253.94 -43.17,-220.93 -130.78,-507.88 -297.11,-785.95 -297.1,-495.19 -931.96,-1121.16 -2511.47,-1121.16 -1579.51,0 -2214.37,627.24 -2511.48,1121.16 -166.33,279.33 -253.94,565.02 -298.38,787.21 -21.59,107.93 -31.74,196.81 -36.82,253.95l-3.82 55.87 0 5.07c-5.07,526.94 -431.7,951.02 -958.63,951.02 -529.47,0 -958.63,-429.16 -958.63,-958.63l958.63 0.01 -958.63 0 0 -27.94 1.28 -45.71 10.15 -144.75c10.16,-116.81 29.21,-276.79 67.3,-465.98 73.64,-373.29 224.73,-881.17 533.27,-1396.68 656.44,-1091.94 1926.14,-2051.84 4155.75,-2051.84 2229.6,0 3499.31,959.9 4154.48,2053.12 309.81,514.23 460.91,1022.11 534.55,1396.67 38.09,187.92 58.41,347.9 67.29,464.71l10.16 144.75 0 45.71 1.27 16.51 0 10.16 -958.64 1.27 958.63 0c0,1014.49 -316.15,1773.77 -858.32,2345.14 -474.87,501.53 -1083.06,804.99 -1526.19,1025.93l-50.79 25.39c-505.34,253.94 -820.23,422.81 -1041.16,655.17 -172.68,181.57 -332.66,454.55 -332.66,1027.2 0,529.47 -429.16,958.63 -958.63,958.63 -529.47,0 -958.63,-429.16 -958.63,-958.63 0,-1014.5 316.15,-1773.78 858.32,-2345.15 474.87,-501.53 1083.06,-804.99 1526.19,-1025.93l50.79 -25.39c505.34,-253.94 820.23,-422.81 1041.16,-655.17 171.41,-181.57 331.39,-452.01 332.66,-1020.84l0.01 -0.01zm-2850.49 11103.59c876.09,0 1587.13,-711.04 1587.13,-1587.14 0,-876.1 -711.03,-1587.14 -1587.13,-1587.14 -876.11,0 -1587.14,711.04 -1587.14,1587.14 0,876.1 711.03,1587.14 1587.14,1587.14z"/>
 </g>
</svg>
