<svg xmlns="http://www.w3.org/2000/svg" viewBox="1.4 4.25525 21.2 15.49">
	<path d="M 5.636 5.636 c 0.293 -0.293 0.293 -0.768 0 -1.06 c -0.293 -0.294 -0.768 -0.294 -1.06 0 c -0.976 0.974 -1.75 2.132 -2.277 3.406 C 1.772 9.256 1.5 10.622 1.5 12 c 0 1.379 0.272 2.744 0.8 4.018 c 0.527 1.274 1.3 2.432 2.275 3.407 c 0.293 0.293 0.768 0.293 1.061 0 c 0.293 -0.293 0.293 -0.768 0 -1.061 c -0.836 -0.836 -1.499 -1.828 -1.95 -2.92 C 3.232 14.352 3 13.182 3 12 s 0.233 -2.352 0.685 -3.444 c 0.452 -1.092 1.115 -2.084 1.951 -2.92 Z m 2.828 1.768 c 0.293 0.292 0.293 0.767 0 1.06 c -0.464 0.464 -0.832 1.016 -1.083 1.622 C 7.129 10.693 7 11.343 7 12 c 0 0.656 0.13 1.306 0.38 1.913 c 0.252 0.607 0.62 1.158 1.084 1.622 c 0.293 0.293 0.293 0.768 0 1.06 c -0.292 0.294 -0.767 0.294 -1.06 0 c -0.604 -0.603 -1.083 -1.32 -1.41 -2.108 C 5.669 13.7 5.5 12.853 5.5 12 c 0 -0.854 0.168 -1.7 0.495 -2.488 c 0.326 -0.788 0.805 -1.505 1.409 -2.108 c 0.293 -0.293 0.768 -0.293 1.06 0 Z m 7.072 0 c 0.292 -0.293 0.767 -0.293 1.06 0 C 17.816 8.623 18.5 10.276 18.5 12 c 0 1.724 -0.685 3.377 -1.904 4.596 c -0.293 0.293 -0.768 0.293 -1.06 0 c -0.293 -0.293 -0.293 -0.768 0 -1.06 C 16.473 14.597 17 13.325 17 12 s -0.527 -2.598 -1.464 -3.536 c -0.293 -0.293 -0.293 -0.768 0 -1.06 Z m 2.828 -2.829 c 0.293 -0.293 0.768 -0.293 1.06 0 C 21.395 6.545 22.5 9.215 22.5 12 s -1.106 5.456 -3.075 7.425 c -0.293 0.293 -0.768 0.293 -1.061 0 c -0.293 -0.293 -0.293 -0.768 0 -1.061 C 20.052 16.676 21 14.387 21 12 s -0.948 -4.676 -2.636 -6.364 c -0.293 -0.293 -0.293 -0.768 0 -1.06 Z M 12 14 c 1.105 0 2 -0.895 2 -2 c 0 -1.104 -0.895 -2 -2 -2 s -2 0.896 -2 2 c 0 1.105 0.895 2 2 2 Z" stroke="#000000" stroke-width="0.1" fill="#000000"/>
</svg>