<svg xmlns="http://www.w3.org/2000/svg" viewBox="1.5162 1.73823 20.58 19.36">
	<path d="m 3.116 5.998 l 16.79 -2.66 l 0.157 0.988 l -16.79 2.66 l -0.157 -0.988 Z m -1.481 0.235 c -0.13 -0.819 0.428 -1.587 1.247 -1.717 l 16.79 -2.659 c 0.819 -0.13 1.587 0.429 1.716 1.247 l 0.157 0.988 l 0.234 1.481 l -1.481 0.235 L 6.463 7.999 H 22 v 11.5 c 0 0.829 -0.672 1.5 -1.5 1.5 h -17 c -0.828 0 -1.5 -0.671 -1.5 -1.5 V 8.539 L 1.79 7.22 l -0.156 -0.987 Z m 7.698 3.266 h -2 L 9 11.999 H 6 l -1.667 -2.5 H 3.5 v 10 h 17 v -10 h -3.167 L 19 12 h -3 l -1.667 -2.501 h -2 L 14 12 h -3 L 9.333 9.499 Z" stroke="#000000" stroke-width="0.1" fill="#000000"/>
</svg>