<svg xmlns="http://www.w3.org/2000/svg" viewBox="3.9 2.15011 15.2 19.95">
	<path d="M 19 3 c 0 -0.271 -0.146 -0.521 -0.383 -0.654 c -0.237 -0.133 -0.527 -0.127 -0.758 0.014 l -9 5.5 c -0.223 0.136 -0.359 0.379 -0.359 0.64 v 7.901 C 8.059 16.146 7.546 16 7 16 c -1.657 0 -3 1.343 -3 3 s 1.343 3 3 3 s 3 -1.343 3 -3 v -7.08 l 7.5 -4.583 v 6.064 c -0.441 -0.255 -0.954 -0.401 -1.5 -0.401 c -1.657 0 -3 1.343 -3 3 s 1.343 3 3 3 s 3 -1.343 3 -3 V 3 Z m -1.5 13 c 0 -0.828 -0.672 -1.5 -1.5 -1.5 s -1.5 0.672 -1.5 1.5 s 0.672 1.5 1.5 1.5 s 1.5 -0.672 1.5 -1.5 Z m -9 3 c 0 -0.828 -0.672 -1.5 -1.5 -1.5 s -1.5 0.672 -1.5 1.5 s 0.672 1.5 1.5 1.5 s 1.5 -0.672 1.5 -1.5 Z m 9 -13.42 L 10 10.162 V 8.92 l 7.5 -4.584 V 5.58 Z" stroke="#000000" stroke-width="0.1" fill="#000000"/>
</svg>