<?xml version="1.0" encoding="UTF-8"?>
<!DOCTYPE svg PUBLIC "-//W3C//DTD SVG 1.1//EN" "http://www.w3.org/Graphics/SVG/1.1/DTD/svg11.dtd">
<!-- Creator: CorelDRAW 2020 (64 Bit) -->
<svg xmlns="http://www.w3.org/2000/svg" xml:space="preserve" width="300mm" height="300mm" version="1.1" style="shape-rendering:geometricPrecision; text-rendering:geometricPrecision; image-rendering:optimizeQuality; fill-rule:evenodd; clip-rule:evenodd"
viewBox="0 0 30000 30000"
 xmlns:xlink="http://www.w3.org/1999/xlink"
 xmlns:xodm="http://www.corel.com/coreldraw/odm/2003">
 <defs>
  <style type="text/css">
   <![CDATA[
    .fil1 {fill:#FEFEFE}
    .fil3 {fill:#A0A1A2}
    .fil4 {fill:#818081}
    .fil2 {fill:#5C5D60}
    .fil0 {fill:#282828}
   ]]>
  </style>
 </defs>
 <g id="Camada_x0020_1">
  <metadata id="CorelCorpID_0Corel-Layer"/>
  <g id="_1676195059376">
   <path class="fil0" d="M6569.73 17519.82l5574.88 -16.13c188.01,0 646.57,-22.9 803.35,7.84 24.44,143.81 6.51,1583.14 6.51,1858.83l0 4670.02c0,181.17 23.36,811.06 -8.48,941.16 -116.06,27.94 -6339.75,12.02 -6383.68,-1.18 -29.65,-102.77 -9.64,-5938.54 -9.64,-6527.32 0,-62.84 -21.12,-879.67 17.06,-933.22zm-3487.1 7450.31c-51.91,-31.55 -275.11,-48.53 -428.64,-321.05 -112.13,-199.06 -83.59,-428.93 -83.59,-692.09l-0.01 -15844.68c-0.03,-213.61 -29.7,-186.44 86.12,-300.99l3099.81 -3099.05c68.78,-69.07 126.22,-126.36 194.71,-194.47 63.4,-63.07 130.16,-139.86 200.07,-192.15l2507.31 2505.9c69.39,67.83 311.1,330.8 372.86,354.41 102.94,-65 2420.67,-2433.08 2841.37,-2833.89 34.38,-32.77 16.72,-25.89 63.49,-39.68l2887.06 2877.59c64,-26.83 296.65,-281.09 369.49,-351.94l1084.52 -1083.92c241.51,-241.25 496.94,-498.29 722.86,-722.55 94.92,-94.22 661.27,-678.11 731.89,-719.95 58.36,28.94 307.45,291.89 371.44,357.59 698.75,717.28 1451.26,1449.13 2168.62,2167.69 78.61,78.77 294.01,312.6 364.79,354.87 56.87,-41.75 121.86,-115.75 175.13,-169.12l1258.02 -1257.69c219.42,-218.83 475.36,-477.07 716.44,-715.12 117.28,-115.78 663.88,-676.65 727.48,-718.52 60.67,27.97 3214.52,3200.91 3474.11,3461.88 121,121.64 102.96,65.53 102.74,291.3l-0.01 15844.69c0,375.44 57.5,784.34 -375.02,991.43 -35.61,17.06 -106.25,33.11 -135.11,47.44l-77.71 29.6 -10133 1.67c-207.44,0 -1374.43,25.96 -1473.29,-15.85 -25.13,-90.04 -7.11,-4479.9 -7.11,-4695.79 0,-1572.91 0,-3145.84 0,-4718.76 -3282.39,0 -6564.78,0 -9847.17,0 -101.66,0 -204.9,1.76 -306.37,-0.44 -9.04,-0.18 -67.11,-2.2 -70.55,-1.8 -64.21,7.12 -34.16,-12.3 -44.18,35.7l1.04 8757.66c0,139.39 16.74,519.23 -11.07,630.16 -106.98,25.2 -1071.02,7.53 -1334.01,9.26 -28.3,0.18 -70.78,2.24 -97.56,-0.07l-96.97 -29.27zm-2835.43 -377.29c23.82,39.11 18.45,99.12 26.36,148.35l91.47 415.51c137.29,496.19 427.02,954.9 768.48,1291.26 862.25,849.36 1795.88,813.92 1878.2,858.64l23705.09 0 72.72 -22.11c735.42,-117.57 1238.29,-332.69 1790.41,-888.24 829.3,-834.44 810.95,-1866.63 840.94,-1924l0 -23507.31c-66.15,12.89 -151.89,122.65 -203.9,174.7l-2404.05 2404.84c-66.62,66.49 -323.45,341.5 -383.66,363.65l-2887.6 -2882.96c-63.63,27.14 -1951.4,1936.68 -2175.17,2159.98 -100.48,100.27 -669.56,684.21 -729.69,720.35 -101.45,-50.54 -2790.01,-2817.34 -2904.85,-2880.88 -73.4,46.57 -2028.64,2020.33 -2172.49,2163.34 -111.1,110.48 -675.16,692.41 -736.93,721.58l-2886.4 -2883.63c-49.29,17.62 -310.4,294.42 -368.31,352.42 -123.53,123.69 -238.22,237.97 -361.55,361.18l-1807.07 1806.63c-83.57,83.44 -286.79,307.42 -367.93,358.84 -62.45,-26.61 -662.66,-647.43 -732.46,-717.15 -154.45,-154.28 -2101.13,-2117.51 -2172.39,-2163.15 -67.1,37.53 -2018.48,2007.64 -2173.4,2162.25 -123.87,123.64 -237.75,237.65 -361.44,361.31 -47.76,47.74 -310.05,327.42 -370.02,357.21 -73.82,-44.09 -306.58,-297.21 -382.26,-372.77 -126.5,-126.29 -242.17,-242.02 -368.36,-368.29 -248.65,-248.79 -487.98,-487.51 -736.81,-736.46 -153.58,-153.62 -1434,-1449.12 -1486.93,-1473.46l0 23638.37z"/>
   <path class="fil0" d="M4602.21 12799.31c167.92,15.14 2327.11,2.6 2552.72,2.6l17262.36 0c99,0 591.07,18.68 632.62,-12.58 28.69,-28.1 13.39,-1968.03 13.39,-2272.52 0,-241.52 12.74,-519.85 -1.92,-756.81 -96.38,-24.84 -5019.66,-7.77 -5105.63,-7.77 -4901.64,0 -9803.3,0 -14704.96,0 -148.34,0 -524.49,-18.22 -646.17,6.32l-2.41 3040.76z"/>
   <path class="fil0" d="M25052.11 17864.18c18.58,-30.15 26.36,-2113.13 8.19,-2306.84 -110.99,-25.18 -3492.5,-6.86 -3700.75,-6.86 -201.47,0 -3599.55,-18.25 -3700.03,7.77l-3.76 2269.75c5.11,63.01 23.39,50.12 88.57,49.76 2025.18,-11.25 4074.41,-1.04 6103.11,-1.04 155.29,0 1153.79,21.51 1204.67,-12.54z"/>
   <path class="fil0" d="M17676.28 22209.39c95.38,26.22 762.39,7.13 917.39,7.13 530.37,0 6346.19,13.51 6450.28,-4.68 16.17,-57.18 21.45,-2196.69 2.23,-2293.02 -181.43,-36.39 -7362.46,0.02 -7375.05,2.38l5.15 2288.19z"/>
   <path class="fil1" d="M26716.8 27306.6l2704.07 0 0 -2834.35c-29.99,57.37 -11.64,1089.56 -840.94,1924 -552.12,555.55 -1054.99,770.67 -1790.41,888.24l-72.72 22.11z"/>
   <path class="fil1" d="M3011.71 27306.6c-82.32,-44.72 -1015.95,-9.28 -1878.2,-858.64 -341.46,-336.36 -631.19,-795.07 -768.48,-1291.26l-91.47 -415.51c-7.91,-49.23 -2.54,-109.24 -26.36,-148.35l0 2713.76 2764.51 0z"/>
   <path class="fil2" d="M3082.63 24970.13l96.97 29.27c26.78,2.31 69.26,0.25 97.56,0.07 262.99,-1.73 1227.03,15.94 1334.01,-9.26 27.81,-110.93 11.07,-490.77 11.07,-630.16l-1.04 -8757.66c10.02,-48 -20.03,-28.58 44.18,-35.7 3.44,-0.4 61.51,1.62 70.55,1.8 101.47,2.2 204.71,0.44 306.37,0.44 3282.39,0 6564.78,0 9847.17,0 0,1572.92 0,3145.85 0,4718.76 0,215.89 -18.02,4605.75 7.11,4695.79 98.86,41.81 1265.85,15.85 1473.29,15.85l10133 -1.67 77.71 -29.6c-451.16,36.71 -1006.08,9.15 -1468.34,9.15 -1459.38,0 -2918.76,0 -4378.14,0 -154.36,0 -5656.57,17.66 -5824.88,-5.59 -2.61,-884.14 21.28,-9343.26 -11.26,-9408.56 -16.02,-10.92 -3.23,-6.16 -31.57,-12.89l-10248.29 6.22c-39.92,-66.32 -19.17,1095.83 -19.17,1173.2l-0.02 8247.93 -1516.28 -7.39z"/>
   <path class="fil3" d="M6569.73 17519.82c267.58,19.11 1241.16,2.55 1585.91,2.55 314.38,0 4681.33,-16.84 4771.9,7.88l5.02 7433.07c-116.98,27.12 -4422.25,7.93 -4763.01,7.93 -518.07,0 -1084.31,21.73 -1596.39,-1.68l-3.43 -7449.75zm0 0c-38.18,53.55 -17.06,870.38 -17.06,933.22 0,588.78 -20.01,6424.55 9.64,6527.32 43.93,13.2 6267.62,29.12 6383.68,1.18 31.84,-130.1 8.48,-759.99 8.48,-941.16l0 -4670.02c0,-275.69 17.93,-1715.02 -6.51,-1858.83 -156.78,-30.74 -615.34,-7.84 -803.35,-7.84l-5574.88 16.13z"/>
   <path class="fil4" d="M17671.13 19921.2c12.59,-2.36 7193.62,-38.77 7375.05,-2.38 19.22,96.33 13.94,2235.84 -2.23,2293.02 -104.09,18.19 -5919.91,4.68 -6450.28,4.68 -155,0 -822.01,19.09 -917.39,-7.13l-5.15 -2288.19zm-17.73 2304.28c58.7,19.65 7308.08,33.45 7409.2,1.28l5.25 -2320.4c-103.29,-25.39 -7365.25,-12.29 -7410.32,1.13l-4.13 2317.99z"/>
  </g>
 </g>
</svg>
