<?xml version="1.0" encoding="UTF-8"?>
<!DOCTYPE svg PUBLIC "-//W3C//DTD SVG 1.1//EN" "http://www.w3.org/Graphics/SVG/1.1/DTD/svg11.dtd">
<!-- Creator: CorelDRAW 2020 (64 Bit) -->
<svg xmlns="http://www.w3.org/2000/svg" xml:space="preserve" width="300mm" height="300mm" version="1.1" style="shape-rendering:geometricPrecision; text-rendering:geometricPrecision; image-rendering:optimizeQuality; fill-rule:evenodd; clip-rule:evenodd"
viewBox="0 0 30000 30000"
 xmlns:xlink="http://www.w3.org/1999/xlink"
 xmlns:xodm="http://www.corel.com/coreldraw/odm/2003">
 <defs>
  <style type="text/css">
   <![CDATA[
    .fil0 {fill:black}
   ]]>
  </style>
 </defs>
 <g id="Camada_x0020_1">
  <metadata id="CorelCorpID_0Corel-Layer"/>
  <g id="_1888756787184">
   <path class="fil0" d="M8393.18 23785.57c6.13,-22.95 14.56,-29.55 25.54,-50.65l302.05 -595.42c39.68,-70.98 79.6,-140.25 122.77,-207.43 195.59,-304.43 324.6,-476.56 545.02,-758.85 70.86,-90.76 150.79,-171.47 225.87,-256.73l236.97 -254.1c18.54,-18.34 22.82,-19.54 41.64,-34.55l386.02 -350.58c31.49,-28.03 59.37,-49.85 92.65,-76.68 182.53,-147.15 373.13,-283 568.22,-413.92l203.32 -126.88c811.78,-490.03 1696.65,-807.34 2649.17,-932.23l925.36 -65.24c250.51,0 507.04,16.11 760.5,43.83l429.72 61.34c706.24,127.98 1331.76,345.98 1953.77,653.97 422.13,209.03 819.04,475.51 1185.14,770.66 89.32,72 180.06,141.3 262.08,220.51l334.29 317.65c96.73,95.86 304.15,326.68 387.96,433.31 49.8,63.36 93.87,113.7 142.69,179.04 25.52,34.16 45.41,57.09 70.27,90.6 117.49,158.42 223.73,324.27 332.51,488.76 85.89,129.87 167.02,274.67 237.07,414.86 37.54,75.14 211.66,399.25 211.66,440.27 0,31.57 -114.27,98.98 -138.82,115.18l-472.42 314.98c-270.87,170.47 -549.94,332.46 -836.56,475.77 -58.82,29.41 -113.75,56.88 -174.97,87.49 -119.19,59.59 -236.1,113.3 -358.19,166.75 -916.14,401.02 -1867.71,672.94 -2862.43,812.1 -236.86,33.13 -506.13,46.21 -713.05,74.35l-370.17 19.3c-45.23,-0.23 -90.48,-0.07 -135.72,-0.25 -54.18,-0.23 -69.09,8.39 -117.99,9l-263.01 -0.14c-54.18,0.22 -69.09,-8.4 -117.99,-9l-986.1 -63.77c-82.99,-11.37 -156.97,-17.74 -233.93,-28.54 -155.23,-21.8 -299.63,-43.98 -453.14,-71.8 -510.2,-92.45 -979.71,-213.07 -1463.03,-374.23 -349.22,-116.44 -793.12,-280.81 -1123,-443.33 -58.21,-28.68 -119.79,-55.84 -177.67,-84.8l-259.75 -129.72c-268.56,-134.19 -576.48,-310.96 -830.78,-481.55l-314.97 -209.96c-48.57,-32.15 -200.96,-128.13 -228.57,-169.37zm6198.02 -21403.72l286.47 0c143.42,1.17 285.34,4.02 424.59,8.19 42.68,1.28 46.85,8.57 92.52,9.08 30.6,0.34 61.83,-2.51 92.23,0.9 177.89,19.96 375.36,25.58 545.52,47.15 123.32,15.63 229.25,22.54 349.43,40.03 237.73,34.59 456.65,62.5 680.35,107.05 881.23,175.52 1590.75,373.1 2431.88,709.26 205.24,82.02 364.05,160.28 544.23,234.7 179.79,74.26 356.05,170.69 529.82,257.57l759.33 426.01c285.07,170.05 552.13,359.52 825.62,545.98 308.82,210.56 596.57,452.51 881.39,693.41 23.88,20.2 31.35,24.53 54.51,47.08 20.95,20.4 30.37,22.89 50.97,42.17 134,125.4 277.11,242.18 406.35,372.58l393.72 393.68 554.76 622.11c183.42,210.36 350.61,435.59 518.36,658.51l245.52 347.14c237.65,356.66 468.45,719.37 671.65,1097.88 14.15,26.35 22.72,36.52 36.83,64.77 12.05,24.12 18.2,38.64 30.9,62.23 114.64,212.88 229.8,426.64 322.53,651.14 19.62,47.5 43.88,94.36 64.02,139.19 20.41,45.44 39.46,90.6 59.17,135.56 79.88,182.16 158.01,372.06 225.67,561.73 379.12,1062.7 537.44,1691.84 703.31,2827.29 34.49,236.14 51.69,467.18 70.82,716.57 21.35,278.28 31.39,569.72 33.37,860.83l0 222.56c-0.98,148.73 -3.85,296.47 -8.19,441.39 -1.28,42.68 -8.57,46.86 -9.08,92.52 -1.68,151.94 -26.55,495.28 -46.79,639.01 -17.02,120.88 -23.97,229.14 -41.29,348.17 -34.59,237.73 -62.75,456.65 -107.11,680.3 -142.92,720.59 -268.53,1184.01 -495.54,1866.65 -112.75,339.04 -240.01,661.15 -389.82,981.78l-251.19 536.22c-151.52,305.47 -318.25,596.32 -493.06,887l-384.63 597.5c-181.66,274.29 -386.03,532.56 -589.04,791.03 -143.11,182.2 -297.65,358.52 -450.34,531.79 -17.3,19.63 -33.35,30.91 -50.36,51.25 -18.49,22.12 -20.97,29.04 -42.58,50.54l-537.7 546.04c-17.39,15.31 -29.88,29.74 -46.63,46.5l-306.91 285.75c-23.38,17.84 -31.08,28.55 -52.82,48.78l-259.26 223.34c-617.46,499.94 -1167.7,899.01 -1854.95,1294.65 -43.29,24.92 -82.96,46.87 -130.14,73.07l-379.94 204.26c-75.05,45.7 -175.28,91.91 -257.89,131.57l-816.95 359.92c-95.28,38.08 -188.91,77.39 -285.66,112.27l-734.02 248.11c-469.3,133.17 -933.36,263.1 -1415.18,345.89 -215.69,37.06 -450.82,81.21 -680.36,107.04 -117.72,13.25 -240.63,29.53 -356.32,41.61l-361.4 28.07c-211.68,23.17 -539,32.62 -746.31,32.62 -1053.39,0 -1551.71,-51.68 -2507.27,-210.53 -327.44,-54.43 -646.72,-138.56 -967.4,-217.93 -305.52,-75.62 -607.82,-177.08 -901.61,-275.26 -285.29,-95.33 -568.88,-215.85 -846.45,-330.42l-1184.92 -584.61c-42.43,-25.65 -80.03,-45.11 -123.75,-70.98 -309.35,-182.98 -611.76,-369.79 -907.34,-574.33l-567.15 -414.98c-223.48,-174.48 -495.04,-388.12 -695.57,-582.9 -98.5,-95.66 -208.05,-181.42 -304.97,-279.22l-393.69 -393.71c-36.3,-36.09 -57.12,-65.96 -93.11,-101.63 -116.59,-115.53 -215.76,-246.28 -330.31,-363.95 -20.25,-20.8 -22.99,-30.15 -42.26,-50.88 -94.94,-102.13 -182.95,-213.58 -269.91,-322.76l-170.85 -218.61c-118.83,-145.53 -221.18,-303.98 -333.66,-453.75 -113.09,-150.58 -211.82,-315.58 -315.73,-471.66 -27.06,-40.65 -50.18,-82.69 -77.77,-125.43 -26.42,-40.93 -50.6,-78.63 -75.03,-119.7 -48.16,-80.98 -95.94,-162.3 -143.89,-245.59l-109.52 -195.27c-152.66,-294.85 -277.8,-511.29 -423.55,-837.98l-349.49 -835.85c-113.2,-289.18 -207.65,-582.19 -294.86,-882 -90.04,-309.56 -177,-629.13 -239.63,-945.71 -66,-333.67 -127.54,-668.42 -171.75,-1005.11 -30.67,-233.61 -58.37,-471.37 -70.24,-717.16 -2.3,-47.6 -10.53,-133.14 -15.68,-179.06 -3.72,-33.2 0.58,-67.03 -1.2,-100.4 -2,-37.64 -8.3,-40.61 -8.84,-84.29l-8.13 -753.87c0,-874.95 112,-1656.02 275.84,-2484.29 43.27,-218.71 99.1,-419.61 152.56,-634.84 81.79,-329.22 207.59,-733.33 330.03,-1050.04l336.2 -832.2c92.98,-215.93 202.27,-462.46 318.93,-663.2 48.33,-83.17 87.48,-177.84 136.22,-261.72l214.86 -377.8c191.9,-326.46 404.8,-642.68 622.9,-951.9 164.24,-232.85 372.23,-510.15 556.97,-721.49 16.84,-19.27 26.07,-32.74 42.24,-50.89l325.77 -368.51c18.28,-20.74 21.47,-29.92 42.23,-50.9 67.03,-67.75 122.49,-131.2 190.68,-198.78 36,-35.67 56.81,-65.54 93.11,-101.63l660.26 -626.67c99.25,-96.41 307.99,-266.68 426.69,-360.7 18.02,-14.27 33.21,-26.39 51.66,-41.49 72.64,-59.43 144.35,-116.04 218.18,-171.28 379.07,-283.64 765.87,-556.38 1172.07,-800.67 185.98,-111.85 372.96,-224.35 566.54,-322.45 26.8,-13.57 33.91,-20.46 59.11,-34.03l389.57 -194.63c266.42,-134.29 536.1,-252.37 813.53,-363.33 238.25,-95.29 479.76,-186.24 723.43,-267.17 47.15,-15.65 96.09,-29.07 148.3,-46.43 196.09,-65.2 398.42,-127.36 601.19,-177.75l961.21 -215.65c218.9,-44.12 453.52,-73.66 680.58,-106.83 484.64,-70.79 1012.27,-99.82 1530.29,-104.19zm-10592.22 12471.4c0,-141.5 6.53,-524.27 23.09,-645.79 3.62,-26.59 1.44,-47.6 2.09,-74.1l51.02 -541.65c53.69,-479.7 141.42,-943.24 260.66,-1407.27 23.46,-91.27 47.28,-174.41 73.2,-265.47 131.67,-462.54 261.13,-795.56 434.2,-1233.73 32.47,-82.2 71.48,-158.71 102.82,-235.85l105.61 -224.59c111.67,-223.32 217.23,-447.48 345.94,-661.59 42.8,-71.2 78.37,-136.44 121.71,-208.49 253.81,-422.03 681.65,-1044.77 1009.22,-1412.25l402.2 -444.47c19.07,-19.81 20.89,-27.26 37.99,-46.67l775.05 -732.01 463.04 -375.16c189.22,-144.8 386.09,-282.63 584.29,-414.78l409.08 -259.79c175.72,-104.82 353.08,-210.48 536.37,-301.83l333.02 -166.51c1007,-503.66 2260.98,-853.89 3370.44,-981.42 47.26,-5.43 101.53,-11.26 144.75,-16.12 337.11,-37.92 782.51,-60.79 1124.54,-60.79 141.49,0 524.26,6.52 645.78,23.08l309.66 20.54c542.03,57.02 914.93,117.22 1446.99,229.41 40.26,8.49 86.87,22.21 129.8,31.07 139.29,28.76 265.74,67.15 402.04,105.95 178.08,50.7 341.12,101.84 510.59,158.29 243.61,81.15 484.84,181.71 723.15,275.91 201.27,79.57 379.7,178.78 575.77,262.43 87.66,37.4 470.47,246.38 546.26,291.94 509.77,306.45 926.13,563.46 1392.11,944.69l273.87 225.66c20.1,15.65 26.49,25.36 44.67,40l354.55 322.78c19.82,19.07 27.27,20.9 46.68,37.99l414.93 423.27c16.02,16.01 26.8,25.85 42.5,42.16l649.74 772.66c48.08,62.83 90.7,124.52 140.21,190 146.08,193.24 272.93,398.71 408.33,599.2 132.74,196.56 319.56,523.25 427.86,740.54 74.15,148.78 158.76,292.94 222.2,446.66 49.92,120.97 105.74,224.59 153.57,345.97 181.49,460.56 295.13,747.71 437.15,1239.25 50.5,174.76 97.37,347.61 137.41,531.45 80.62,370.13 151.6,739.31 197.6,1140.14 5.47,47.7 13.22,99.4 16.91,143.95 4.33,52.17 6.51,103.1 14.09,155.24 23.51,161.75 45.91,784.58 45.91,970.1 0,110.17 -8.53,191.85 -8.47,296.33 0.07,108.07 -2.72,199.1 -8.42,304.84 -1.98,36.77 -6.69,30.98 -8.52,67.68 -17.75,355.78 -59.2,710.22 -117.33,1059.54 -57.9,347.96 -132.25,695.6 -221.26,1031.8l-103.46 362.21c-79.59,287.94 -285.06,863.93 -421.54,1144.79 -16.17,33.28 -36.29,78.53 -49.61,111.26 -59.07,145.14 -131.14,284.12 -201.57,424.97 -36.88,73.76 -67.67,135.63 -107.13,206.13 -19.95,35.63 -30.63,65.61 -51.66,100.74l-171.55 302.58c-156.19,261.12 -317.4,512.92 -490.29,762.78 -127.76,184.64 -262.89,361.29 -404.05,535.75l-246.44 295.42c-34.12,44.03 -155.8,183.09 -191.16,206.77 -200.4,-378.72 -369.11,-625.35 -592.67,-965.2l-645.69 -810.57c-22.89,-22.58 -26.82,-32.7 -46.53,-55.08 -15.4,-17.49 -29.7,-29.68 -46.62,-46.51l-143.81 -152.52c-112.1,-112.1 -221,-233.23 -342.52,-334.81 -19.22,-16.07 -33.15,-32.53 -51.06,-50.55 -21.49,-21.62 -28.45,-24.1 -50.54,-42.59l-101.93 -92.8c-22.28,-22.65 -32.33,-27.12 -54.85,-46.75 -117.83,-102.66 -450.2,-379 -595.75,-471.05l-62.92 -38.68c-77.81,-55.37 -157.19,-107.86 -236.91,-161.02 -204.59,-136.41 -441.06,-286.93 -665.92,-400.88 -502.02,-254.39 -853.7,-428.71 -1428.54,-620.39 -294.31,-98.14 -606.31,-185.03 -914.78,-253.62 -330.62,-73.52 -658.45,-126.79 -1005.39,-163.02 -456.93,-47.72 -997.91,-65.16 -1463.75,-27.27 -65.55,5.33 -122.23,5.98 -185.75,8.98 -56.63,2.69 -115.05,13.68 -177.62,17.12 -190,10.42 -497.65,62.96 -682.48,96.45 -827.71,150 -1609.2,401.31 -2346.01,769.72 -83.9,41.94 -181.71,84.27 -258.46,131.01 -41.22,25.1 -85.31,45.61 -125.75,68.98l-612.61 369.53c-310.47,206.98 -604.63,429.87 -888.14,669.72l-355.56 321.77c-141.82,118.55 -262.28,264.37 -393.4,394.01l-139.49 156.83c-170.9,170.73 -455.25,556.54 -602.74,760.4 -165.7,229.05 -317.84,464.63 -456.22,712.18 -49.17,87.96 -95.04,169.15 -141.32,256.61 -57.72,-38.65 -102.08,-105.61 -146.44,-158.36l-559.92 -693.15c-46.53,-62.08 -88.47,-120.38 -131.81,-181.45 -129.19,-182.06 -258.12,-373.47 -373.05,-566.75l-230.93 -395.61c-146.02,-273.74 -293.69,-549.09 -420.41,-832.66 -414.09,-926.62 -693.95,-1914.84 -836.85,-2922.34l-61.28 -565.25c-6.77,-89.01 -16.94,-198.74 -24.4,-288.87l-17.38 -609.15z"/>
   <path class="fil0" d="M12253.98 11974.58c0,-539.02 168.83,-1013.26 474.07,-1447.87l247.56 -294.29c29.31,-29.31 51.64,-42.24 80.65,-71.76 30.1,-30.61 49.15,-44.07 80.43,-71.97 337.95,-301.33 830.57,-502.86 1287.07,-558.66 609.49,-74.51 1192.81,79.67 1697.9,422.61l88.27 64.12c29.27,24.15 56.36,43.24 84.54,67.87l309.19 308.86c364.54,408.83 577.92,1024.97 577.92,1581.09 0,176.26 -24.76,373.9 -62.81,546.79 -37.44,170.1 -92.68,317.96 -154.88,463.19 -103.93,242.7 -311.42,539.66 -503.95,732.18 -29.31,29.31 -51.63,42.24 -80.65,71.76 -56.92,57.91 -183.66,156.84 -252.59,204.6 -120.27,83.34 -255.66,163.85 -393.03,225.04 -428.91,191.04 -837.98,248.77 -1302.38,201.93 -405.12,-40.87 -789.27,-200.76 -1117.39,-423.55 -67.45,-45.8 -201.9,-151.12 -253.45,-203.74 -30.63,-31.28 -54.36,-45.56 -84.84,-76.04l-143.72 -161.08c-25.22,-28.28 -43.79,-55.1 -68,-84.39 -321.26,-388.68 -509.91,-981.33 -509.91,-1496.69zm-2057.4 -110.07c0,465.95 17.15,748.83 126.99,1185.34 34.93,138.8 77.25,298.54 127.01,423.33 26.03,65.27 45.28,131.09 73.82,197.11 144.78,334.95 191.6,417.71 375.31,725.36 144.43,241.86 421.97,570.93 615.55,764.51 93.67,93.67 181.55,181.93 286.38,263.96 180.38,141.17 255.17,211.86 470.9,350.37l348.23 202.1c304,151.9 665.65,306.34 1001.18,378.88 526.91,113.93 647.38,131.84 1222.83,131.84 171.16,0 351,-19.6 501.03,-40.83 468.22,-66.27 963.17,-215.47 1367.29,-419.17 438.09,-220.82 851.44,-511.39 1198.73,-858.68l258.17 -283.7c43.61,-48.98 81.84,-99.57 120.62,-150.31 19.65,-25.72 40.39,-49.19 59.3,-76.16 20.1,-28.65 39.21,-55.96 59.38,-84.55l215.21 -335.13c91.6,-154.85 112.99,-205.69 188.2,-362.13 119.85,-249.28 211.95,-511.32 285.73,-806.48 37.38,-149.54 67.9,-298.83 90.24,-460.09 102.16,-737.53 26.45,-1450.27 -215.43,-2147.78 -24.88,-71.75 -47.33,-129.55 -74.15,-196.78 -80.18,-200.99 -131.07,-285.21 -221.77,-464.03 -134.52,-265.21 -320.93,-508.67 -506.34,-738.26 -218.18,-270.16 -577.97,-598.63 -860.82,-790.17 -229.59,-155.48 -437.06,-289.56 -695.97,-404.7 -63.67,-28.32 -121.7,-54.02 -189.83,-81.1 -501.81,-199.51 -1028.38,-333.88 -1596.53,-333.88 -475.04,0 -745.88,16.8 -1192.09,128.71 -247.69,62.11 -391.18,110.61 -619.79,201.48 -389.36,154.76 -884.7,447.02 -1204.14,726.26l-148.46 130.93c-28.01,28.37 -40.01,39.68 -71.04,64.43 -75.21,60 -136.36,144.05 -204.09,210.77 -27.69,27.28 -38.12,46.16 -63.37,72.1 -133.06,136.67 -367.78,463.13 -468.37,632.3 -323.3,543.73 -580.41,1209.4 -634.28,1846.45 -3.39,40.08 -6.01,88.67 -12.3,131.64 -11.53,78.86 -13.33,181.26 -13.33,266.06z"/>
  </g>
 </g>
</svg>
