<svg xmlns="http://www.w3.org/2000/svg" viewBox="1.89974 1.9 20.2 20.07">
	<path d="M 7.278 4.933 C 8.675 3.999 10.318 3.5 12 3.5 c 1.681 0 3.325 0.499 4.722 1.433 c 1.398 0.934 2.488 2.261 3.13 3.814 c 0.644 1.553 0.813 3.262 0.485 4.911 c -0.328 1.65 -1.138 3.164 -2.327 4.352 c -0.293 0.293 -0.293 0.768 0 1.061 c 0.293 0.293 0.768 0.293 1.061 0 c 1.399 -1.399 2.351 -3.18 2.737 -5.12 c 0.386 -1.94 0.188 -3.95 -0.57 -5.778 c -0.756 -1.827 -2.038 -3.389 -3.682 -4.488 C 15.91 2.586 13.978 2 12 2 c -1.978 0 -3.911 0.586 -5.556 1.685 c -1.644 1.1 -2.926 2.66 -3.683 4.488 c -0.757 1.827 -0.955 3.838 -0.569 5.778 c 0.386 1.94 1.338 3.721 2.737 5.12 c 0.293 0.293 0.768 0.293 1.06 0 c 0.293 -0.293 0.293 -0.768 0 -1.06 c -1.188 -1.19 -1.998 -2.704 -2.326 -4.353 c -0.328 -1.649 -0.16 -3.358 0.484 -4.91 c 0.643 -1.554 1.733 -2.881 3.13 -3.815 Z M 12 7.5 c -0.89 0 -1.76 0.264 -2.5 0.758 c -0.74 0.495 -1.317 1.198 -1.657 2.02 c -0.341 0.822 -0.43 1.727 -0.257 2.6 c 0.174 0.873 0.603 1.675 1.232 2.304 c 0.293 0.293 0.293 0.768 0 1.06 c -0.293 0.293 -0.768 0.293 -1.06 0 c -0.84 -0.839 -1.411 -1.908 -1.643 -3.072 c -0.231 -1.163 -0.112 -2.37 0.342 -3.466 S 7.68 7.67 8.667 7.01 C 9.653 6.351 10.813 6 12 6 c 1.187 0 2.347 0.352 3.333 1.011 c 0.987 0.66 1.756 1.597 2.21 2.693 c 0.454 1.096 0.573 2.303 0.342 3.466 c -0.232 1.164 -0.803 2.233 -1.642 3.073 c -0.293 0.293 -0.768 0.293 -1.061 0 c -0.293 -0.293 -0.293 -0.768 0 -1.061 c 0.63 -0.63 1.058 -1.431 1.231 -2.304 c 0.174 -0.873 0.085 -1.778 -0.256 -2.6 c -0.34 -0.822 -0.917 -1.525 -1.657 -2.02 c -0.74 -0.494 -1.61 -0.758 -2.5 -0.758 Z m 0.875 6.299 C 13.541 13.474 14 12.79 14 12 c 0 -1.105 -0.895 -2 -2 -2 s -2 0.895 -2 2 c 0 0.79 0.459 1.474 1.125 1.799 V 21 c 0 0.483 0.392 0.875 0.875 0.875 s 0.875 -0.392 0.875 -0.875 v -7.201 Z" stroke="#000000" stroke-width="0.1" fill="#000000"/>
</svg>