<?xml version="1.0" encoding="UTF-8"?>
<!DOCTYPE svg PUBLIC "-//W3C//DTD SVG 1.1//EN" "http://www.w3.org/Graphics/SVG/1.1/DTD/svg11.dtd">
<!-- Creator: CorelDRAW 2020 (64 Bit) -->
<svg xmlns="http://www.w3.org/2000/svg" xml:space="preserve" width="300mm" height="300mm" version="1.1" style="shape-rendering:geometricPrecision; text-rendering:geometricPrecision; image-rendering:optimizeQuality; fill-rule:evenodd; clip-rule:evenodd"
viewBox="0 0 30000 30000"
 xmlns:xlink="http://www.w3.org/1999/xlink"
 xmlns:xodm="http://www.corel.com/coreldraw/odm/2003">
 <defs>
  <style type="text/css">
   <![CDATA[
    .str0 {stroke:black;stroke-width:156.25;stroke-miterlimit:22.9256}
    .fil0 {fill:#201E1E}
   ]]>
  </style>
 </defs>
 <g id="Camada_x0020_1">
  <metadata id="CorelCorpID_0Corel-Layer"/>
  <path class="fil0 str0" d="M4963.42 1721.69l-1048.51 0 0 25513.96c0,578.78 469.74,1048.52 1048.51,1048.52 578.78,0 1048.52,-469.74 1048.52,-1048.52l0.01 -10135.68 7689.14 0 817.84 1635.69c355.1,711.59 1082.07,1160.36 1876.15,1160.36l7791.2 0c1157.57,0 2097.04,-939.47 2097.04,-2097.03l0 -11184.21c0,-1157.57 -939.47,-2097.04 -2097.04,-2097.04l-7689.14 0 -817.84 -1635.68c-356.5,-713 -1083.47,-1160.37 -1876.16,-1160.37l-8839.72 0zm1048.53 13281.24l8985.11 0 580.18 1160.36 817.85 1635.69 7791.19 0.01 0 -11184.21 -8985.11 0 -580.18 -1160.36 -817.85 -1635.68 -7791.19 -0.01 0 11184.2z"/>
 </g>
</svg>
