<?xml version="1.0" encoding="UTF-8"?>
<!DOCTYPE svg PUBLIC "-//W3C//DTD SVG 1.1//EN" "http://www.w3.org/Graphics/SVG/1.1/DTD/svg11.dtd">
<!-- Creator: CorelDRAW 2020 (64 Bit) -->
<svg xmlns="http://www.w3.org/2000/svg" xml:space="preserve" width="300mm" height="300mm" version="1.1" style="shape-rendering:geometricPrecision; text-rendering:geometricPrecision; image-rendering:optimizeQuality; fill-rule:evenodd; clip-rule:evenodd"
viewBox="0 0 30000 30000"
 xmlns:xlink="http://www.w3.org/1999/xlink"
 xmlns:xodm="http://www.corel.com/coreldraw/odm/2003">
 <defs>
  <style type="text/css">
   <![CDATA[
    .str0 {stroke:black;stroke-width:148.51;stroke-miterlimit:22.9256}
    .fil0 {fill:#201E1E}
   ]]>
  </style>
 </defs>
 <g id="Camada_x0020_1">
  <metadata id="CorelCorpID_0Corel-Layer"/>
  <path class="fil0 str0" d="M7068.06 4296.07l14702.98 0 0 7351.48c0,4060.69 -3290.8,7351.48 -7351.49,7351.48 -4060.69,0 -7351.49,-3290.78 -7351.49,-7351.48l0 -7351.48zm-2004.95 0c0,-1106.74 898.22,-2004.96 2004.95,-2004.96l14702.98 0c1106.73,0 2004.94,898.22 2004.94,2004.95l0 668.32 2673.27 0c737.82,0 1336.64,598.82 1336.64,1336.64l0 4009.9c0,3332.23 -2439.36,6095.05 -5629.9,6600.29 -1446.24,2122.58 -3742.58,3618.27 -6399.81,3997.87l0 2099.86 2004.95 0c1106.73,0 2004.95,898.22 2004.95,2004.95l0 4009.9 -10693.06 -0.01 0 -4009.9c0,-1106.73 898.22,-2004.95 2004.95,-2004.95l2004.94 0.01 0 -2098.51c-2655.89,-380.95 -4953.56,-1876.64 -6399.8,-3999.21 -3190.54,-505.26 -5629.9,-3268.08 -5629.9,-6600.3l0 -4009.9c0,-737.82 598.81,-1336.64 1336.63,-1336.64l2673.27 0 0 -668.31zm0 2339.11l-2339.1 0 0 3675.74c0,2015.64 1189.6,3753.27 2905.83,4548.56 -366.23,-1001.14 -566.73,-2082.48 -566.73,-3211.93l0 -5012.37zm18146.14 8224.3c1716.24,-795.3 2905.84,-2532.92 2905.84,-4548.56l0 -3675.74 -2339.11 0 0 5012.37c0,1128.12 -200.49,2210.79 -566.73,3211.92l0 0.01zm-12131.28 12159.35l0 -2004.94 6683.16 0 0 2004.94 -6683.16 0z"/>
 </g>
</svg>
