<?xml version="1.0" encoding="UTF-8"?>
<!DOCTYPE svg PUBLIC "-//W3C//DTD SVG 1.1//EN" "http://www.w3.org/Graphics/SVG/1.1/DTD/svg11.dtd">
<!-- Creator: CorelDRAW 2020 (64 Bit) -->
<svg xmlns="http://www.w3.org/2000/svg" xml:space="preserve" width="300mm" height="300mm" version="1.1" style="shape-rendering:geometricPrecision; text-rendering:geometricPrecision; image-rendering:optimizeQuality; fill-rule:evenodd; clip-rule:evenodd"
viewBox="0 0 30000 30000"
 xmlns:xlink="http://www.w3.org/1999/xlink"
 xmlns:xodm="http://www.corel.com/coreldraw/odm/2003">
 <defs>
  <style type="text/css">
   <![CDATA[
    .str0 {stroke:black;stroke-width:148.51;stroke-miterlimit:22.9256}
    .fil0 {fill:#201E1E}
   ]]>
  </style>
 </defs>
 <g id="Camada_x0020_1">
  <metadata id="CorelCorpID_0Corel-Layer"/>
  <path class="fil0 str0" d="M18163.52 7377.73l-918.85 -382.4 -1050.9 -3685.02 -2389.28 0 -1053.65 3686.4 -918.85 381.03c-663,275.1 -1284.74,636.86 -1848.7,1070.16l-790.92 605.23 -3722.17 -931.23 -1193.95 2068.78 2665.76 2755.17 -127.92 984.88c-45.39,350.75 -68.78,707.02 -68.78,1071.53 0,363.14 23.39,720.77 68.78,1071.53l127.92 984.88 -2665.76 2755.17 1193.95 2068.78 3722.17 -931.23 790.92 605.23c563.96,433.29 1185.7,793.68 1848.7,1070.16l918.85 382.4 1053.65 3685.02 2389.28 -0.01 1052.28 -3686.4 918.85 -381.03c664.38,-275.1 1284.74,-636.86 1850.07,-1070.16l789.55 -605.23 3722.17 931.23 1195.32 -2068.78 -2665.76 -2755.17 126.54 -984.88c45.39,-350.75 68.78,-707.02 68.78,-1071.53 0,-363.14 -23.39,-720.78 -68.78,-1071.53l-126.54 -984.88 2665.76 -2755.17 -1195.32 -2068.78 -3722.17 931.23 -789.55 -605.23c-563.96,-433.29 -1185.7,-793.68 -1850.07,-1070.16l-1.38 0.01zm6101.81 294.36zm-5309.51 -2200.83l-921.6 -3226.98c-169.19,-590.1 -709.77,-997.25 -1323.25,-997.25l-3427.8 -0.01c-613.49,0 -1152.69,407.15 -1321.88,997.25l-921.6 3228.35c-832.19,345.25 -1609.36,797.81 -2313.63,1337l-3259.99 -815.68c-595.6,-148.56 -1217.34,115.54 -1524.07,646.5l-1713.91 2969.76c-306.74,530.96 -224.21,1202.21 202.21,1643.75l2335.63 2414.05c-55.02,437.41 -85.28,883.09 -85.28,1335.63 0,452.54 28.89,898.21 85.28,1334.25l-2335.63 2415.42c-426.42,440.17 -508.94,1112.8 -202.21,1643.75l1713.9 2968.37c306.74,530.96 928.48,795.06 1525.45,646.5l3258.62 -815.68c704.27,540.57 1481.43,990.38 2312.25,1337l921.6 3228.35c170.57,590.1 709.77,997.25 1323.25,997.25l3427.81 0.01c613.49,0 1154.06,-407.15 1321.88,-997.25l921.6 -3228.35c832.19,-345.25 1609.36,-797.81 2313.63,-1337l3259.99 815.68c595.6,148.56 1217.34,-115.54 1525.45,-646.5l1712.53 -2968.37c306.74,-530.96 224.21,-1202.21 -202.21,-1643.75l-2335.63 -2414.05c55.02,-437.42 85.28,-883.09 85.28,-1335.63 0,-452.54 -28.89,-898.22 -85.28,-1334.25l2335.63 -2415.42c426.42,-440.17 508.94,-1112.8 202.21,-1643.75l-1712.54 -2971.14c-308.11,-530.95 -929.85,-795.05 -1526.82,-646.49l-3258.62 815.68c-704.27,-540.58 -1481.43,-990.38 -2312.25,-1337zm855.57 9530.99c0,2658.88 -2155.44,4814.33 -4814.33,4814.33 -2658.88,0 -4814.32,-2155.45 -4814.32,-4814.33 0,-2658.88 2155.44,-4814.33 4814.32,-4814.33 2658.89,0 4814.33,2155.45 4814.33,4814.33zm-2063.28 0c0,1519.95 -1231.09,2751.05 -2751.05,2751.05 -1519.95,0 -2751.04,-1231.1 -2751.04,-2751.05 0,-1519.95 1231.09,-2751.05 2751.04,-2751.05 1519.96,0 2751.05,1231.1 2751.05,2751.05z"/>
 </g>
</svg>
