<svg xmlns="http://www.w3.org/2000/svg" viewBox="2.9 2.9 18.2 19.49">
	<path d="M 6.379 17.5 H 19 c 0.276 0 0.5 -0.224 0.5 -0.5 V 5 c 0 -0.276 -0.224 -0.5 -0.5 -0.5 H 5 c -0.276 0 -0.5 0.224 -0.5 0.5 v 14.379 l 1.44 -1.44 l 0.439 -0.439 Z m -1.879 4 l -0.033 0.033 l -0.26 0.26 l -0.353 0.353 c -0.315 0.315 -0.854 0.092 -0.854 -0.353 V 5 c 0 -1.105 0.895 -2 2 -2 h 14 c 1.105 0 2 0.895 2 2 v 12 c 0 1.105 -0.895 2 -2 2 H 7 l -2.5 2.5 Z M 12 6 c 0.552 0 1 0.448 1 1 v 4 c 0 0.552 -0.448 1 -1 1 s -1 -0.448 -1 -1 V 7 c 0 -0.552 0.448 -1 1 -1 Z m 0 9.75 c 0.69 0 1.25 -0.56 1.25 -1.25 s -0.56 -1.25 -1.25 -1.25 s -1.25 0.56 -1.25 1.25 s 0.56 1.25 1.25 1.25 Z" stroke="#000000" stroke-width="0.1" fill="#000000"/>
</svg>